<?xml version="1.0" encoding="UTF-8"?>
<svg id="Layer_2" data-name="Layer 2" xmlns="http://www.w3.org/2000/svg" viewBox="0 0 571.5 255.67">
  <defs>
    <style>
      .cls-1 {
        fill: #010101;
      }

      .cls-1, .cls-2, .cls-3, .cls-4, .cls-5 {
        stroke-width: 0px;
      }

      .cls-3 {
        fill: #fff;
      }

      .cls-4 {
        fill: #e9e3c4;
      }

      .cls-5 {
        fill: #a44952;
      }
    </style>
  </defs>
  <g id="Layer_1-2" data-name="Layer 1-2">
    <path class="cls-3" d="m325.85,170.97c-8.65-9.12-22.19-23.7-40.61-43.74-12.93,7.94-22.5,12.87-28.73,14.8,2.05,2.18,4.28,4.73,6.7,7.67-3.12,1.3-6.72,2.81-10.8,4.54-9.02,13.04-16.79,24.23-23.33,33.59,5.55,8.78,18.73,26.34,39.53,52.7,23.17-10.04,42.1-18.21,56.81-24.52l.43-45.03h0Z"/>
    <path class="cls-1" d="m284.81,147.42l22.46,27,4,30.46c-19.3,8.21-31.72,13.54-37.26,15.98-3.46-5.54-10.91-16.34-22.36-32.4,4.82-8.21,8.32-14.26,10.48-18.14,9.5-1.08,16.24-1.98,20.2-2.7,5.18,6.55,9.04,11.2,11.56,13.93,1.01,4.82,1.84,9.14,2.48,12.96v.11c.29.86.47,1.73.54,2.59l-17.93,7.78c-4.18-6.34-7.31-10.8-9.4-13.39,1.3-2.59,3.13-6.48,5.51-11.66l8.21,3.67,2.59,8.42-5.08,2.05-4.32-10.8c-1.37,4.54-1.04,10.08.97,16.63,6.41-1.94,11.2-3.31,14.36-4.1l-4.32-16.2-14.69-5.62c-3.67,4.9-7.38,10.62-11.12,17.17,5.98,8.14,11.2,15.59,15.66,22.36,12.38-4.82,21.2-9,26.46-12.53-.86-3.67-2.2-11.74-4-24.19-7.2-7.49-12.53-13.18-15.98-17.06-12.17,1.44-20.2,2.23-24.08,2.38l-18.68,24.52c6.34,11.02,16.09,25.38,29.27,43.09l48.06-22.36c.07-1.37-.94-13.18-3.02-35.42-13.03-14.18-23.33-25.42-30.89-33.7-6.14,2.32-11.62,4.37-16.42,6.16-9.42,3.53-16.19,6.02-20.3,7.45-9.79,14.33-17.86,26.06-24.19,35.21,9.79,13.39,23.76,33.26,41.9,59.61,26.5-10.94,48.53-19.94,66.09-27-.5-9.72-.94-27.43-1.3-53.13-18.36-16.78-33.37-31.36-45.03-43.74l-33.26,21.17,33.05-12.96c20.09,23.26,32.18,37.12,36.29,41.58l.32,42.55c-10.37,3.67-28.22,10.15-53.57,19.44-15.41-17.71-27.33-34.09-35.75-49.14-.04-.08-.07-.15-.11-.22.04-.05.08-.12.11-.22,7.82-9.62,15.41-18.98,22.79-28.08l29.7-9.5h0Z"/>
    <path class="cls-4" d="m287.42,87.58c4.43,10.46,15.72,18.84,33.85,25.15l44.3-17.74c-4.77-20.36-18.27-35.4-40.48-45.15-13.35,4.46-25.91,17.04-37.67,37.73m-12.8,9.41l-42.25-15.9-34.4,19.07c-.19.11-.17.39.03.47,0,0,19.62,14.71,37.49,14.23,16.38-.44,29.16-8.93,39.13-17.87Z"/>
    <path class="cls-1" d="m278.23,62.81c-.08-4.38-.65-13.89-1.7-28.51-2.51,2.62-4.68,14.08-6.52,34.36-26.58-7.15-48.35-13.14-65.33-17.96-11.37,10.44-17.84,21.89-19.42,34.34.15-.05.97-1.03,2.45-2.95.67-.75,3.93-4.18,9.76-10.3,5.41-5.65,8.45-8.85,9.12-9.6,6.54,2.06,19.41,6.19,38.61,12.38,20.94,6.73,31.98,10.32,33.1,10.75.11-1.31.17-2.51.19-3.61.11-1.6.03-7.91-.26-18.92m-57.36-26.22c-.05.09,0,.26.14.5.14.29.28.48.42.57.47.29,1.06.6,1.76.94.24.1,1.96.71,5.15,1.84,3.23,1.17,7.15,3.21,11.76,6.1,4.62,2.89,8.15,5.65,10.6,8.28,2.9,1.73,4.01,1.67,3.33-.17-5.01-6.2-9.85-10.49-14.51-12.86-6.25-3.19-12.47-4.92-18.64-5.19m76.06,21.42c-1.43,1.07-2.75,2.3-3.94,3.71-2.3,2.71-3.97,5.88-5.01,9.51-.25.89-.42,1.72-.53,2.47.02,2.03-.01,3.09-.11,3.19.57-.56,1.11-1.5,1.59-2.82,1.41-3.38,3.34-6.48,5.78-9.28,2.4-2.81,5.17-5.16,8.31-7.06.43-.28.93-.67,1.5-1.19.62-.61.91-.98.86-1.12-.05-.14-.61-.22-1.7-.23s-1.73.05-2.06.19c-1.66.69-3.23,1.57-4.71,2.63m-8.92-52.27c-.07,1.61-.01,4.91.16,9.92.17,5.44.36,9.22.57,11.35.16,2.69.59,7.59,1.31,14.69.3,2.65.67,5.06,1.12,7.24.95-.22,2.01-.47,3.2-.74,11.7-2.83,29.45-7.48,53.25-13.94,3.94,6.19,7.54,10.82,10.81,13.88,2.48,2.35,6.45,5.39,11.93,9.15-1.17-4.55-8.02-16.28-20.54-35.19-15.25,3.36-32.9,7.27-52.94,11.75C294.04,21.76,291.21,10.48,288.36,0c-.17,2.55-.29,4.46-.35,5.74m104.81,80.81c-.19,0-.45.02-.78.06-4.88.88-9.79,2.38-14.72,4.5-1.38.6-2.47,1.27-3.28,2.01-.62.56-.91.93-.86,1.12.18.52.68.74,1.48.66,4.26-1.03,6.87-1.71,7.82-2.03.57-.13,2.3-.85,5.2-2.13,3.09-1.38,4.75-2.23,4.99-2.56.05-.09.29-.33.72-.7.29-.23.34-.44.15-.64-.19-.14-.42-.24-.71-.29m-18.86,12.38c.05.14,1.18.42,3.39.82,1.08.2,2.17.4,3.25.61,1.13.2,2.43.34,3.89.4.85.06,2.17.1,3.97.12,1.51.02,2.57,0,3.19-.03,1.23-.03,2.29-.11,3.19-.24.19-.04.45-.16.78-.34.38-.23.5-.37.36-.42-.66-.29-2.87-.7-6.65-1.22-3.68-.47-6.35-.74-8-.81-1.37-.06-2.48-.08-3.33-.04-1.23.03-2.32.16-3.26.38h-.14c-.09,0-.24.09-.43.28-.19.23-.26.4-.22.49m-181,6.48c-.14-.14-.52-.22-1.13-.23-.61,0-1.04.06-1.28.2-7.94,3.78-11.95,5.73-12.05,5.88-.05.09.12.21.49.36.33.1.59.15.78.15.28,0,.95-.13,1.99-.4,1.04-.27,1.8-.5,2.28-.68,1.8-.73,3.18-1.31,4.13-1.72,1.47-.74,2.74-1.5,3.78-2.29.29-.19.5-.37.64-.56.19-.23.31-.47.36-.7m-17.59-4.68c1.23.25,3.56.35,7.01.3,3.17,0,5.36-.12,6.59-.34.8-.13,1.4-.29,1.78-.47.1-.05.14-.19.15-.42s-.04-.38-.14-.43c-.99-.53-3.42-.68-7.29-.44-.99.08-3.05.22-6.17.42-2.6.2-3.95.38-4.05.52-.19.23.51.53,2.12.88m39.42-24.74c5.19-3.19,6.74-4.66,4.66-4.41-2.58.53-5.07,1.32-7.47,2.39-4.18,1.88-7.47,4.41-9.87,7.6-2.35,3.25-3.78,7.65-4.27,13.2.38-.18.72-.53,1.01-1.05,1.4-2.67,3.11-5.51,5.14-8.51,2.02-2.95,5.63-6.03,10.81-9.22m14.39,51.63c3.25.56,5.19.8,5.8.71.71-.09,4.72-1.69,12.04-4.81,7.36-3.17,11.5-5.06,12.4-5.66,10.48-6.86,16.1-11,16.88-12.41.29-.52.59-1.55.89-3.11-.53.65-4.34,3.18-11.43,7.58-3.67,2.27-7.76,4.77-12.28,7.5-1.62.92-7.98,3.59-19.09,7.99-21.52-5.42-32.78-7.96-33.78-7.64-.33.14-.62.35-.86.63s-.29.56-.15.85c.09.24,3.83,1.42,11.22,3.54,7.91,2.32,14.03,3.93,18.37,4.83m1.79,9.87c2.32-.11,4.68-.51,7.1-1.19,2.09-.54,4.34-1.36,6.76-2.47,1.71-.78,3.85-1.84,6.42-3.18,2.24-1.2,3.97-2.22,5.21-3.05.71-.51,2.46-1.98,5.23-4.4,2.82-2.47,4.78-4.26,5.88-5.38.91-.89,1.6-1.63,2.08-2.24.72-.94,1.23-1.83,1.52-2.67-1.67,1.16-4.24,3.04-7.72,5.65-3.24,2.42-5.13,3.83-5.65,4.25-6.54,5.26-14.17,9.16-22.89,11.69-4.31,1.22-7.98,1.96-11.01,2.2,2.21.64,4.57.91,7.08.8m55.13-28.38c1.02,1.67,2.46,3.69,4.32,6.08,2.23,2.91,6.31,7.71,12.22,14.4,0,.09,1.19.96,3.58,2.6,2.62,1.78,4.52,2.91,5.7,3.4,2.26.97,4.8,1.78,7.62,2.43,2.74.36,7.06.63,12.96.8h.07c-.24-.1-5.77-1.53-16.6-4.31-1.27-.49-4.72-2.54-10.34-6.15-1.5-1.06-3.04-2.42-4.63-4.1-.98-1.05-2.35-2.63-4.12-4.73l-13.96-17.11c.68,2.13,1.74,4.37,3.18,6.7m68.27,9.49c-.71-.15-1.13-.18-1.27-.09-1.91,1.39-4.19,2.57-6.85,3.53-1.99.68-4.53,1.34-7.61,1.96-1.14.22-2.91.48-5.32.78-2.6.35-4.26.51-4.97.51-1.27-.2-3.82-.76-7.63-1.65-4.52-1.05-7.18-1.79-7.98-2.22-.61-.29-1.29-.7-2.04-1.23-.47-.29-1.15-.75-2.04-1.37-1.4-1.01-3.98-3.14-7.72-6.4-3.97-3.5-6.8-6.11-8.48-7.83-3.21-3.42-5.42-5.95-6.64-7.59v.07c-.38.23,1.5,3.14,5.63,8.72,4.46,5.91,8.17,10.02,11.12,12.33.89.72,2.48,1.92,4.77,3.6,2.44,1.73,3.86,2.69,4.29,2.89,4.88,2.38,11.03,4.03,18.44,4.98.76.06,3.34-.38,7.74-1.32,3.65-.85,6.97-2.16,9.97-3.92.33-.18,1.24-.79,2.72-1.81,1.57-1.11,2.62-1.88,3.15-2.3.24-.19.48-.73.73-1.62m-29.39-70.73c-9.9,3.65-18.23,9.15-25.01,16.49-6.72,7.38-11.71,15.42-14.97,24.12-.31.89-.6,1.71-.88,2.47,11.35,13.25,23.48,21.46,36.41,24.61,6.95,1.34,23.77-5.06,50.48-19.22l-1.1-2.99c-2.37-6.15-5.22-11.9-8.57-17.26-11.16-16.76-23.28-26.16-36.36-28.23m0,5.32c4.74,1.13,10.79,4.89,18.14,11.28,8.02,6.98,14.91,16.56,20.69,28.74-20.08,10.7-34.14,16.43-42.17,17.2-5.35-1.46-10.94-4.06-16.77-7.79-5.78-3.69-10.52-8.12-14.22-13.29,5.49-15.15,16.93-27.2,34.32-36.14m-9.26,9.59c-.66.09-1.3.34-1.92.76-.86.6-1.7,1.61-2.52,3.02-1.69,2.91-2.87,6.32-3.53,10.23-.51,3.16-.7,6.82-.56,10.98.11,2.98.38,5.49.83,7.52.58,2.65,1.5,4.93,2.75,6.84.56.86,1.12,1.41,1.68,1.65.52.29,1.11.39,1.77.31.57-.09,1.14-.27,1.71-.55,1.52-.83,2.7-2.19,3.52-4.07.34-.75.63-1.62.88-2.61.15-.66.3-1.56.46-2.69,1.07-6.7,1.35-13.71.83-21.04-.12-1.75-.29-3.17-.51-4.26-.31-1.52-.82-2.82-1.51-3.92-.6-.95-1.26-1.6-1.96-1.94-.56-.24-1.2-.32-1.91-.24m-37.78,34.76c-15.35-10.28-30.72-16.5-46.12-18.64-2.14.49-6.25,2.24-12.32,5.23-9.18,4.55-17.31,9.93-24.36,16.14,8.15,6.12,16.14,10.69,24,13.69,7.85,3,15.91,3.95,24.2,2.85,8.34-1.05,19.88-7.48,34.61-19.27m-15.2-2.88c4.64,2.12,7.08,3.33,7.33,3.63-12.09,8.24-23.06,12.59-32.9,13.06-12.09-.33-23.88-4.09-35.37-11.28,10.02-7.25,20.31-12.4,30.88-15.42l3.32.82c1.63,13.52,4.17,20.04,7.62,19.58,3.45-.42,5.74-5.47,6.85-15.15,3.59,1.06,7.68,2.64,12.27,4.76Z"/>
  </g>
  <g id="_Слой_4" data-name="Слой 4">
    <path class="cls-2" d="m571.58,142.65v100.2l-17.29,10.79-5.6-.68c-3.57-.43-5.34-.64-8.89-1.07l-2.13-.26-1.6-.2-.66-.08-3.04-.37c-6.89-.84-10.32-1.26-17.16-2.1l-1.74-.22-1.9-.23-.51-.06-3.19-.4-8.71-1.08-4.39-.54v-2.76s-5.03,2.13-5.03,2.13l-4.92-.61-9.28-1.16-5.03-.62.27-1.91-4.09,1.43-5.64-.71-8.6-1.07-4.3-.54h-.04s-.02-.01-.02-.01l-5.04-.63-6.91-.87-11.47-1.44-1.07-.13-3.26-.41-2.02-.25c-8-1.01-12.17-1.52-19.87-2.49-.34-.04-.69-.09-1.05-.13h-.06s-4.62-.58-4.62-.58l-8.64-1.08-4.3-.53-.02-1.15-.12,1.13-5.05-.63c-7.43-.92-11.16-1.38-18.65-2.3l-4.28-.53-.04-1.47-2.4,1.17-5.75-.7c-3.91-.48-5.88-.72-9.82-1.2l-4.29-.52-.1-4.33c-.23-9.87-.46-19.74-.69-29.61l-.35-14.58-3.63.22-5.2.32-.11-5.2-.04-1.98-.14-6.61-.1-4.65,4.62-.44,24.55-2.32,1.69-.16,4.64-.44,1.68-.16,6.96-.65,5.34-.51.05,2.15.23-2.18,4.08-.38,13.87-1.31,4.71-.45,1.01-.1,4.35-.41.26-.02,7.25-.69,12.8-1.21,2.09-.2,2.9-.27,1.69-.16,8.64-.82,5.41-.51.02,1.59.15-1.61,4.11-.38,14.94-1.42,2.75-.26,5.13-.48,1.21-.12,1.21-.11,6.95-.66,4.86-.46,3.32,1.87.25-2.21,4.04-.38,4.3-.4,3.56-.34,4.52-.43,3.04-.29,6.92-.65,8.95-.85,4.12-.39,1.05-.1,1.77,1.79.11-1.96,4.27-.41,9.02-.85,9.89-.94,5.46-.51,17.84,5.49Z"/>
    <path class="cls-2" d="m523.22,140.04l-1.05.1v-.1h1.05Z"/>
    <path class="cls-2" d="m60.33,139.55h0s3.27.37,3.27.37l-3.27-.37Z"/>
    <polygon class="cls-2" points="240.82 159.9 240.82 225.2 236.26 225.6 231.1 226.07 223.13 226.77 217.7 227.25 211.55 223.84 211.57 227.8 206.99 228.2 203.49 228.51 191.9 229.54 187.04 229.97 186.48 230.02 182.45 230.38 176.05 230.94 167.23 231.73 161.82 232.2 155.65 229.13 155.68 232.75 151.08 233.16 135.99 234.49 131.14 234.92 130.6 234.97 126.54 235.33 121.03 235.82 112.49 236.58 107.11 237.05 101.55 234.28 101.05 237.59 97.14 237.94 69.34 240.4 67.08 240.6 61.72 241.07 48.87 233.16 48.87 162.61 42.95 162.14 44.08 237.99 44.15 242.63 39.52 243.04 27.06 244.3 19.48 244.97 14.12 245.45 -.08 236.17 -.08 144.13 12.4 135.3 18.03 135.92 33.78 136.62 59.21 139.43 60.33 139.55 60.33 139.56 63.6 139.92 65.95 140.18 73.78 141.04 79.96 141.72 84.36 142.21 84.42 146.63 84.42 146.89 90.94 142.93 95.7 143.46 125.84 146.79 129.75 147.22 130.24 147.27 135.36 147.84 150.56 149.52 160.83 150.65 166.82 151.31 176.55 152.39 182.15 153.01 186.09 153.44 186.58 153.49 191.67 154.06 206.87 155.74 211.31 156.23 211.32 160.69 211.32 161.22 217.57 156.92 223.13 157.53 223.26 157.55 236.36 159.4 240.82 159.9"/>
  </g>
  <g>
    <path class="cls-5" d="m324.28,172.49c-.07-3.44-.11-5.15-.18-8.59,10.89-1.03,16.33-1.54,27.21-2.57.09,3.79.14,5.69.23,9.48-3.49.22-5.23.32-8.73.54.42,17.06.85,34.13,1.27,51.19-3.92-.48-5.88-.72-9.82-1.2-.38-16.46-.77-32.93-1.16-49.39-3.53.22-5.29.33-8.82.54Z"/>
    <path class="cls-5" d="m384.69,227.54c-.4-19.86-.89-39.72-1.32-59.58-.85.05-1.27.08-2.12.14-1.99,19.42-3.95,38.85-6.04,58.27-7.44-.92-11.17-1.38-18.66-2.3-.51-21.03-1.06-42.06-1.58-63.09,3.45-.33,5.18-.49,8.64-.82.45,18.71.93,37.43,1.39,56.14.91.09,1.37.13,2.28.21,2.05-19.09,4.03-38.18,6.03-57.27,7.43-.7,11.15-1.05,18.58-1.76.46,23.71,1,47.42,1.45,71.14-3.46-.43-5.18-.65-8.65-1.08Z"/>
    <path class="cls-5" d="m398.02,229.21c-.08-4.49-.12-6.74-.2-11.23,5.3.48,7.95.72,13.23,1.19.33-5.65.49-8.48.81-14.16-.66-2.6-.99-3.9-1.65-6.48-3.56-.1-5.34-.16-8.9-.26-.09-4.54-.14-6.81-.23-11.34,3.24-.02,4.87-.02,8.11-.04.72-3.31,1.08-4.97,1.8-8.31-.4-4.49-.6-6.72-1-11.18-4.91.3-7.37.45-12.28.75-.08-4.48-.13-6.72-.2-11.19,8.02-.76,12.03-1.14,20.05-1.9.87,9.58,1.31,14.41,2.21,24.13-1.06,4.77-1.59,7.14-2.65,11.84,1.39,5.53,2.08,8.33,3.46,13.97-.64,10.78-.96,16.15-1.63,26.82-8.36-1.05-12.54-1.57-20.92-2.62Z"/>
    <path class="cls-5" d="m453.07,236.1c-.13-24.2-.39-48.41-.57-72.61-.85.05-1.27.08-2.11.14-2.24,23.76-4.41,47.54-6.71,71.29-7.35-.92-11.03-1.38-18.38-2.31-.3-26.07-.75-52.13-1.05-78.19,3.45-.33,5.18-.49,8.64-.82.22,23.06.56,46.12.82,69.18.9.09,1.35.13,2.25.21,2.24-23.43,4.36-46.88,6.62-70.31,7.43-.7,11.15-1.05,18.58-1.76.1,28.75.41,57.5.51,86.24-3.44-.43-5.16-.65-8.6-1.08Z"/>
    <path class="cls-5" d="m485.44,240.15c-3.72-.46-5.57-.69-9.28-1.16,1.6-11.65,3.15-23.31,4.66-34.97-3.5-.13-5.25-.2-8.75-.33-.37-2.84-.56-4.26-.93-7.09-1.91-15.36-3.84-30.71-5.75-46.07,3.75-.35,5.62-.53,9.37-.89,1.63,13.82,3.29,27.63,4.94,41.45,1.1,0,1.65.01,2.76.02,1.57-14.22,3.15-28.43,4.77-42.64,3.72-.35,5.57-.53,9.29-.88-1.87,16.46-3.64,32.94-5.43,49.42-1.84,14.39-3.72,28.77-5.65,43.14Z"/>
    <path class="cls-5" d="m515.82,243.91c-1.54-28.07-3.32-56.13-4.98-84.19-1.01.07-1.52.1-2.53.16.04,27.71.21,55.42.17,83.12-3.49-.43-5.23-.65-8.7-1.08.04-31.54-.2-63.09-.16-94.63,7.56-.72,11.34-1.07,18.9-1.79,1.61,28.59,3.44,57.16,5.1,85.75.59.05.89.08,1.48.14,1.62-28.98,3.08-57.98,4.75-86.96,7.56-.72,11.34-1.07,18.9-1.79.06,35.12.48,70.23.54,105.35-3.56-.43-5.34-.65-8.88-1.08,0-29.7-.27-59.39-.37-89.09-1.05.07-1.57.1-2.61.17-1.49,29.34-2.84,58.68-4.45,88.01-6.89-.84-10.32-1.26-17.15-2.1Z"/>
    <path class="cls-5" d="m19.03,240l-1.55-99.1c12.25,1.35,28.93,2.15,41.18,3.5.08,5.6.12,8.4.2,14-8.4-.67-12.6-1.01-21-1.69.41,27.12.81,54.23,1.22,81.35-6.25.55-13.8,1.39-20.05,1.94Z"/>
    <path class="cls-5" d="m112.06,231.59c-.26-23.34-.52-46.68-.78-70.02-1.37-.11-2.06-.17-3.43-.28-3.82,23.87-7.53,47.76-11.14,71.66l-30.05,2.66c-.41-30.16-.83-60.32-1.24-90.47,5.6.62,8.41.93,14.01,1.55.33,25.27.66,50.53.98,75.8,1.47-.09,2.21-.14,3.68-.23,3.59-24.63,7.27-49.24,11.07-73.83,10.05,1.11,20.09,2.22,30.14,3.33.27,26.2.54,52.4.81,78.59-5.62.5-8.43.75-14.04,1.24Z"/>
    <path class="cls-5" d="m166.79,226.74l-.44-59.72c-6.5-.52-9.75-.78-16.24-1.3.18,20.82.36,41.64.53,62.46-6.04.53-9.06.8-15.09,1.34-.25-25.57-.49-51.14-.74-76.7,6.08.67,9.12,1.01,15.2,1.68,6.5.72,9.76,1.08,16.26,1.8,6.13.68,9.2,1.02,15.34,1.69.13,22.47.27,44.95.4,67.42-6.09.54-9.14.81-15.23,1.35Z"/>
    <path class="cls-5" d="m222.69,221.79c-.02-10.68-.03-16.02-.05-26.7-6.48,0-9.72-.01-16.19-.02.03,9.38.07,18.77.1,28.15-6.04.53-9.06.8-15.09,1.34-.11-21.84-.22-43.69-.34-65.53,6.08.67,9.12,1.01,15.2,1.68.04,10.11.05,15.16.09,25.27,6.48.2,9.73.29,16.21.49-.02-9.59-.03-14.38-.04-23.97,6.13.68,7.1,1.2,13.23,1.88v56.25c-6.09.54-7.03.62-13.12,1.16Z"/>
  </g>
</svg>