<?xml version="1.0" encoding="UTF-8" standalone="no"?>
<svg
   version="1.1"
   x="0px"
   y="0px"
   width="547.60577"
   height="69.440033"
   viewBox="0 0 547.60577 69.440033"
   id="svg9"
   xmlns="http://www.w3.org/2000/svg"
   xmlns:svg="http://www.w3.org/2000/svg">
  <defs
     id="defs9" />
  <style
     type="text/css"
     id="style1">&#10;	    path, rect { fill: #FFFF; }&#10;    </style>
  <path
     d="M 5.0510925e-7,17.173341 H 7.914671 l 1.3440006,5.376003 h 0.522667 q 0.7466674,-1.120001 1.7920014,-2.165335 1.045334,-1.12 2.464001,-1.941334 1.418667,-0.896 3.210668,-1.418667 1.792001,-0.597334 4.032002,-0.597334 2.986668,0 5.450669,0.821334 2.538668,0.821334 4.330669,2.613334 1.792001,1.717335 2.762668,4.554669 1.045334,2.762668 1.045334,6.720003 V 53.760025 H 24.117346 v -21.72801 q 0,-4.554669 -1.642668,-6.197336 -1.568,-1.717335 -4.480002,-1.717335 -2.389334,0 -4.256002,1.194668 -1.792001,1.12 -2.986668,2.837334 V 53.760025 H 5.0510925e-7 Z M 42.037425,35.466683 q 0,-4.032002 1.120001,-7.46667 1.12,-3.509335 3.434668,-6.048003 2.389335,-2.613335 5.973336,-4.032002 3.584002,-1.493334 8.586671,-1.493334 4.181335,0 7.46667,1.045334 3.285335,1.045334 5.525336,2.912001 2.240001,1.866668 3.360002,4.480002 1.194667,2.613335 1.194667,5.67467 0,1.418667 -0.149333,3.210668 -0.149334,1.717334 -0.298667,2.986668 H 52.490764 q 0,5.450669 2.165334,7.914671 2.240001,2.389334 6.34667,2.389334 2.090667,0 3.434668,-0.448 1.418667,-0.522667 2.240001,-1.194667 0.896001,-0.746667 1.194667,-1.568001 0.373334,-0.896001 0.373334,-1.717334 v -0.970667 l 10.005338,0.224 q 0.07467,0.373333 0.07467,0.746667 0.07467,0.298666 0.07467,0.597333 0,1.568001 -0.597333,3.658669 -0.597334,2.016001 -2.464001,3.808002 -1.866668,1.792 -5.301336,3.061334 -3.434669,1.269334 -9.109338,1.269334 -9.408004,0 -14.186673,-4.928002 -4.704003,-5.002669 -4.704003,-14.112007 z m 26.73068,-4.853335 q 0.07467,-0.298667 0.07467,-0.522667 0,-0.298667 0,-0.448001 0,-3.061334 -2.314667,-4.629335 -2.240001,-1.568001 -5.301336,-1.568001 -3.584002,0 -5.824003,1.717334 -2.240001,1.642668 -2.613335,5.45067 z m 52.639955,23.146677 h -8.13867 l -1.49333,-4.032002 h -0.448 q -0.672,0.672001 -1.64267,1.568001 -0.896,0.821334 -2.31467,1.568001 -1.344,0.672 -3.21067,1.12 -1.86666,0.522667 -4.255999,0.522667 -3.061333,0 -5.898667,-1.045334 -2.837335,-1.045333 -5.002669,-3.360001 -2.165335,-2.314668 -3.434669,-5.89867 -1.269333,-3.658668 -1.269333,-8.810671 0,-5.226669 1.269333,-8.81067 1.344001,-3.658669 3.509335,-5.89867 2.240002,-2.240001 5.00267,-3.210668 2.837334,-1.045334 5.824,-1.045334 3.807999,0 6.346669,1.344001 2.61334,1.269334 3.95734,2.837334 h 0.448 V -2.1191406e-7 h 10.752 z m -10.752,-26.432012 q -1.26934,-1.418668 -3.136,-2.314668 -1.792,-0.896001 -3.73334,-0.896001 -1.792,0 -3.36,0.522667 -1.493334,0.522667 -2.688001,1.866668 -1.120001,1.269334 -1.792001,3.434668 -0.672,2.165335 -0.672,5.450669 0,3.285335 0.597333,5.525336 0.672001,2.165335 1.792001,3.509335 1.120001,1.269334 2.687998,1.866668 1.568,0.522667 3.43467,0.522667 2.38934,0 4.10667,-0.896001 1.71733,-0.970667 2.76267,-2.240001 z m 18.29337,8.213337 q 0,-4.330669 1.19466,-7.840004 1.19467,-3.584002 3.58401,-6.048003 2.38933,-2.538668 5.97333,-3.882668 3.65867,-1.344001 8.51201,-1.344001 4.77867,0 8.36267,1.344001 3.65867,1.344 6.048,3.882668 2.464,2.464001 3.65867,6.048003 1.19467,3.509335 1.19467,7.840004 0,4.330669 -1.19467,7.840004 -1.19467,3.509335 -3.65867,5.973336 -2.38933,2.464001 -6.048,3.808002 -3.584,1.344 -8.36267,1.344 -4.85334,0 -8.51201,-1.344 -3.584,-1.344001 -5.97333,-3.808002 -2.38934,-2.464001 -3.58401,-5.973336 -1.19466,-3.509335 -1.19466,-7.840004 z m 19.26401,11.274672 q 3.73333,0 5.97333,-2.464001 2.31467,-2.538668 2.31467,-8.810671 0,-3.210668 -0.59733,-5.376003 -0.59734,-2.165334 -1.71734,-3.509335 -1.04533,-1.344 -2.61333,-1.941334 -1.49334,-0.597334 -3.36,-0.597334 -3.88267,0 -6.12267,2.538668 -2.24,2.538668 -2.24,8.885338 0,6.272003 2.24,8.810671 2.24,2.464001 6.12267,2.464001 z m 37.5573,8.586671 q 0,6.570669 -3.06133,10.304005 -3.06134,3.733335 -9.78134,3.733335 -2.61333,0 -4.55467,-0.298667 -2.016,-0.298667 -3.65867,-0.746667 l 1.04534,-7.392004 q 1.19466,0.298667 2.464,0.522667 1.26933,0.224 2.76267,0.224 1.792,0 2.912,-1.568 1.12,-1.493334 1.12,-5.152003 V 17.173341 h 10.752 z m -10.752,-53.2373592 h 10.82667 v 9.1840042 h -10.82667 z m 19.78669,28.4480142 q -0.14933,-0.597334 -0.224,-1.344001 0,-0.746667 0,-1.344001 0,-5.301336 4.032,-8.36267 4.10667,-3.136002 12.84268,-3.136002 4.85333,0 8.064,1.120001 3.21067,1.12 5.07734,2.986668 1.86666,1.792001 2.61333,4.256002 0.74667,2.389334 0.74667,4.928002 v 14.858674 q 0,2.090668 1.64267,2.090668 1.04533,0 1.86666,-0.298667 l 0.448,7.168003 q -1.26933,0.373334 -2.912,0.672 -1.568,0.298667 -3.21067,0.298667 -2.016,0 -3.36,-0.522667 -1.26933,-0.522667 -2.016,-1.344 -0.74667,-0.821334 -1.04533,-1.866668 -0.29867,-1.045334 -0.37334,-2.090668 h -0.448 q -0.448,0.597334 -1.568,1.568001 -1.04533,0.970667 -2.76267,1.941334 -1.71733,0.896001 -4.032,1.568001 -2.31467,0.746667 -5.30133,0.746667 -5.37601,0 -8.66134,-2.389334 -3.21067,-2.464001 -3.21067,-7.46667 0,-2.912002 1.19467,-5.152003 1.26933,-2.240001 4.10667,-3.808002 2.912,-1.642667 7.54133,-2.538668 4.70401,-0.896 11.57334,-1.045333 V 29.19468 q 0,-2.389334 -1.568,-3.882668 -1.568,-1.568001 -4.928,-1.568001 -6.64534,0 -6.64534,4.554669 0,0.373333 0,0.821333 0.0747,0.448001 0.14934,0.896001 z m 8.58667,12.693339 q 0,2.016001 1.26934,2.912001 1.344,0.896001 3.73333,0.896001 2.61334,0 5.00267,-1.120001 2.464,-1.12 4.032,-2.912001 v -5.376003 q -4.10667,0.07467 -6.86933,0.522667 -2.68801,0.448 -4.33067,1.194667 -1.568,0.746667 -2.24,1.717335 -0.59734,0.970667 -0.59734,2.165334 z m 32.70401,-7.765337 q 0,-3.882669 1.12,-7.317337 1.12,-3.509335 3.43467,-6.12267 2.38933,-2.613334 5.97333,-4.106668 3.65867,-1.568001 8.73601,-1.568001 5.74933,0 9.10934,1.493334 3.36,1.418667 5.07733,3.434668 1.71734,2.016001 2.16534,4.181336 0.52266,2.165334 0.52266,3.658668 0,0.448 0,0.896001 0,0.448 -0.14933,1.045333 l -10.67734,0.224001 q 0.14934,-0.373334 0.14934,-0.672001 0,-0.298667 0,-0.597333 0,-0.821334 -0.29867,-1.866668 -0.224,-1.045334 -0.97067,-1.941334 -0.74667,-0.896001 -2.016,-1.493334 -1.19467,-0.672001 -3.21067,-0.672001 -3.73333,0 -5.89867,2.538668 -2.09067,2.464001 -2.09067,8.885338 0,5.525336 1.94134,8.437337 2.016,2.837335 6.048,2.837335 2.016,0 3.21067,-0.597334 1.26933,-0.672 2.016,-1.568 0.74667,-0.896001 0.97067,-1.941335 0.29867,-1.045334 0.29867,-1.866667 0,-0.224 0,-0.522667 0,-0.298667 -0.14934,-0.672 l 10.67734,0.149333 q 0.14933,0.597334 0.14933,1.12 0,0.448001 0,0.821334 0,1.344001 -0.52266,3.509335 -0.448,2.165335 -2.16534,4.256002 -1.71733,2.016001 -5.07733,3.509335 -3.36001,1.493334 -9.10934,1.493334 -9.70667,0 -14.48534,-4.928002 -4.77867,-5.002669 -4.77867,-14.03734 z M 279.70148,-2.1191409e-7 h 10.752 V 32.181348 q 1.94134,-1.344 3.95734,-2.986668 2.09067,-1.717334 4.032,-3.658668 2.016,-1.941334 3.73333,-4.032002 1.79201,-2.165335 3.13601,-4.330669 h 11.72267 v 1.269334 q -1.41867,2.165334 -3.136,4.256002 -1.64267,2.016001 -3.36,3.882669 -1.71734,1.866667 -3.36001,3.434668 -1.64266,1.568001 -2.98666,2.688001 0.448,0.597334 1.49333,2.165335 1.12,1.568 2.464,3.658668 1.344,2.016001 2.83734,4.330669 1.49333,2.314667 2.83733,4.330668 1.344,1.941335 2.38933,3.434669 1.04534,1.418667 1.56801,1.866667 v 1.269334 h -11.57334 q -0.59734,-0.522667 -2.016,-2.688001 -1.41867,-2.165334 -2.98667,-4.704002 -1.568,-2.613335 -2.98667,-4.853336 -1.41867,-2.314668 -2.016,-2.986668 -0.52267,0.448 -1.344,1.045334 -0.74667,0.522667 -1.568,1.12 -0.82134,0.522667 -1.568,1.045334 -0.74667,0.448 -1.26934,0.746667 v 11.274672 h -10.752 z m 43.97876,0 h 10.752 V 20.608009 h 0.448 q 1.344,-1.568 3.88267,-2.837334 2.61334,-1.344001 6.42134,-1.344001 2.98667,0 5.74933,1.045334 2.83734,0.970667 5.00267,3.210668 2.24,2.240001 3.50934,5.89867 1.344,3.584001 1.344,8.81067 0,5.152003 -1.26934,8.810671 -1.26933,3.584002 -3.43466,5.89867 -2.16534,2.314668 -5.00267,3.360001 -2.83734,1.045334 -5.89867,1.045334 -2.464,0 -4.33067,-0.522667 -1.792,-0.448 -3.21067,-1.12 -1.344,-0.746667 -2.31467,-1.568001 -0.896,-0.896 -1.568,-1.568001 h -0.448 l -1.568,4.032002 h -8.064 z M 334.43224,43.68002 q 1.04534,1.269334 2.76267,2.240001 1.71733,0.896001 4.032,0.896001 1.86667,0 3.43467,-0.522667 1.568,-0.597334 2.688,-1.866668 1.19467,-1.344 1.792,-3.509335 0.672,-2.240001 0.672,-5.525336 0,-3.285334 -0.672,-5.450669 -0.672,-2.165334 -1.86667,-3.434668 -1.12,-1.344001 -2.688,-1.866668 -1.568,-0.522667 -3.36,-0.522667 -1.94133,0 -3.73333,0.896001 -1.792,0.896 -3.06134,2.314668 z m 31.80807,-8.13867 q 0,-4.330669 1.19466,-7.840004 1.19467,-3.584002 3.584,-6.048003 2.38934,-2.538668 5.97334,-3.882668 3.65867,-1.344001 8.512,-1.344001 4.77867,0 8.36268,1.344001 3.65866,1.344 6.048,3.882668 2.464,2.464001 3.65867,6.048003 1.19466,3.509335 1.19466,7.840004 0,4.330669 -1.19466,7.840004 -1.19467,3.509335 -3.65867,5.973336 -2.38934,2.464001 -6.048,3.808002 -3.58401,1.344 -8.36268,1.344 -4.85333,0 -8.512,-1.344 -3.584,-1.344001 -5.97334,-3.808002 -2.38933,-2.464001 -3.584,-5.973336 -1.19466,-3.509335 -1.19466,-7.840004 z m 19.264,11.274672 q 3.73334,0 5.97334,-2.464001 2.31467,-2.538668 2.31467,-8.810671 0,-3.210668 -0.59734,-5.376003 -0.59733,-2.165334 -1.71733,-3.509335 -1.04533,-1.344 -2.61333,-1.941334 -1.49334,-0.597334 -3.36001,-0.597334 -3.88266,0 -6.12267,2.538668 -2.24,2.538668 -2.24,8.885338 0,6.272003 2.24,8.810671 2.24001,2.464001 6.12267,2.464001 z M 408.8003,52.714691 421.86697,35.31735 409.09896,18.293342 v -1.120001 h 11.42401 l 4.48,6.57067 q 0.97067,1.418667 1.792,2.837335 0.896,1.418667 1.71734,3.136001 h 0.52266 q 0.896,-1.717334 1.71734,-2.986668 0.82133,-1.344001 1.86666,-2.912001 l 4.55467,-6.645337 h 11.42401 v 1.120001 l -12.91734,16.725341 13.14134,17.696008 v 1.045334 h -11.42401 l -5.07733,-7.541337 q -1.19467,-1.717334 -1.792,-2.837334 -0.59734,-1.120001 -1.49334,-2.762668 h -0.52266 q -0.82134,1.717334 -1.56801,2.986668 -0.74666,1.194667 -1.792,2.762668 l -4.928,7.392003 h -11.424 z m 46.06938,-10.453338 h 12.39467 v 11.498672 h -12.39467 z m 32.77868,11.498672 H 476.82169 V 17.173341 h 7.91467 l 1.344,5.077336 h 0.52266 q 0.672,-0.970667 1.49334,-2.016001 0.896,-1.045334 2.09067,-1.866668 1.19466,-0.821333 2.76266,-1.344 1.64267,-0.597334 3.80801,-0.597334 2.76266,0 4.62933,0.970667 1.94134,0.896001 3.06134,2.464001 1.19466,1.568001 1.64266,3.658669 0.52267,2.016001 0.52267,4.256002 0,1.344 -0.224,2.688001 -0.224,1.269334 -0.448,2.314668 l -9.25867,-0.522667 q 0.14933,-0.821334 0.224,-1.642667 0.0747,-0.821334 0.0747,-1.418668 0,-2.389334 -1.04534,-3.658668 -1.04533,-1.269334 -2.76267,-1.269334 -2.16533,0 -3.584,1.493334 -1.344,1.493334 -1.94133,3.061335 z m 59.95742,0 h -7.91467 l -1.41867,-5.376002 h -0.448 q -0.74667,1.12 -1.792,2.240001 -1.04533,1.045334 -2.464,1.941334 -1.41867,0.821334 -3.28534,1.344001 -1.792,0.597333 -4.032,0.597333 -2.98667,0 -5.52533,-0.821333 -2.46401,-0.821334 -4.25601,-2.538668 -1.792,-1.792001 -2.83733,-4.554669 -0.97067,-2.837335 -0.97067,-6.79467 V 17.173341 h 10.75201 v 21.72801 q 0,2.314668 0.37333,3.882669 0.448,1.493334 1.19467,2.389334 0.82133,0.896001 1.94133,1.269334 1.19467,0.373334 2.61334,0.373334 2.38933,0 4.256,-1.120001 1.86667,-1.194667 2.98667,-2.912001 V 17.173341 h 10.82667 z"
     id="text9"
     style="font-size:74.6667px;line-height:196.309px;font-family:SupriaSansW01-Bold;-inkscape-font-specification:SupriaSansW01-Bold;fill:#ffffff;fill-rule:evenodd;stroke:#ffc80f;stroke-width:0;stroke-miterlimit:0;stroke-opacity:0;paint-order:markers stroke fill"
     aria-label="nedojackbox.ru" />
</svg>
