<?xml version="1.0" encoding="utf-8"?>
<!-- Generator: Adobe Illustrator 24.3.0, SVG Export Plug-In . SVG Version: 6.00 Build 0)  -->
<svg version="1.1" id="Слой_1" xmlns="http://www.w3.org/2000/svg" xmlns:xlink="http://www.w3.org/1999/xlink" x="0px" y="0px"
	 viewBox="0 0 501.3 100" style="enable-background:new 0 0 501.3 100;" xml:space="preserve">
<style type="text/css">
	.st0{fill:#FFFFFF;}
</style>
<g>
	<path class="st0" d="M28.9,41c2.2-4.7,5.7-7.9,12.2-7.9c7.3,0,12.2,3.6,12.2,12.4c0,1.6-0.2,3.5-0.5,5.3l-1.6,9.6
		c-0.2,1.4-0.6,3.7,1.6,3.7c1,0,1.8-0.3,2.4-0.5l-1.4,11.2c-2.5,0.7-7.6,1.4-10.4,1.4c-7,0-9.8-3.6-9.8-8.9c0-1.1,0.2-2.3,0.3-3.5
		L36,51c0.2-1,0.3-2.3,0.3-3c0-1.9-0.7-2.7-2.4-2.7c-2.1,0-4.1,1.9-5.3,9l-3.5,21.1h-17l4.5-26.6c0.2-1.6,0.3-3.6-1.8-3.6
		c-0.9,0-1.7,0.2-2.3,0.4L10,34.4c2.4-0.7,7.2-1.3,10.2-1.3c6.3,0,8.4,4,8.4,6.5c0,0.3,0,0.8-0.1,1.4H28.9z"/>
	<path class="st0" d="M83.8,33.1c11.8,0,18.9,5.8,18.9,14.1c0,3-0.8,6.5-2,9H75.9c-0.2,1-0.2,2.5-0.2,3.2c0,3.9,1.7,5.4,4.1,5.4
		c2.7,0,5.1-1,5.1-4.3l15.3,0.1c0,11.1-8.9,15.6-20.8,15.6c-13.2,0-20.2-6.4-20.2-16.7C59.2,45.5,65.4,33.1,83.8,33.1z M87.3,49
		c0.2-0.5,0.3-1.4,0.3-2.3c0-2.5-1.4-4.1-4-4.1c-2.9,0-5.3,1.9-6.4,6.3H87.3z"/>
	<path class="st0" d="M131.4,70c-2.1,2.4-6.1,6.3-12.9,6.3c-5.9,0-12.8-3.8-12.8-17.3c0-20.1,11.5-25.9,19-25.9
		c5.3,0,8.4,2.5,9.9,5.1h0.5l4.1-23.7h16.9l-7.7,45.9c-0.2,1.4-0.6,3.7,1.6,3.7c0.7,0,1.8-0.3,2.4-0.4l-1.4,11.1
		c-2.4,0.7-7.6,1.4-10.4,1.4c-5.8,0-8-2.3-8.5-6.3H131.4z M133.3,48.3c-0.4-1.5-1.8-3-3.4-3c-3.3,0-6.9,4.3-6.9,12.5
		c0,4.9,2,6.3,3.9,6.3c1.5,0,3.3-1.1,4.2-2.7L133.3,48.3z"/>
	<path class="st0" d="M180.6,33.1c14.7,0,20.6,7.3,20.6,17.3c0,14.7-8.1,25.9-23.6,25.9c-14.7,0-20.5-7.2-20.5-17.1
		C157.1,44.5,164.9,33.1,180.6,33.1z M183.9,50.4c0-3.4-1.4-5.1-3.5-5.1c-3.7,0-6.1,5.1-6.1,13.7c0,3.6,1.6,5.2,3.5,5.2
		C181.4,64.2,183.9,59.2,183.9,50.4z"/>
	<path class="st0" d="M220.8,76.2c-1.9,11.3-8.2,17-17.9,17c-4,0-7.3-0.6-10-1.3l3.2-11.7c1.4,0.4,2.9,0.8,4.4,0.8
		c1.8,0,2.9-1.5,3.6-5.7l6.9-41.4h16.9L220.8,76.2z M213.9,16.2h16.8l-2.1,12.4h-16.9L213.9,16.2z"/>
	<path class="st0" d="M230.3,59c0-15.5,8.2-25.9,18.8-25.9c7.1,0,10.1,3.6,11.9,6.9h0.5l3.2-6h12.6l-4.4,26.5
		c-0.2,1.4-0.5,3.8,1.6,3.8c0.9,0,1.8-0.3,2.4-0.5l-1.4,11.1c-2.4,0.7-7.6,1.4-10.4,1.4c-5.8,0-8-2.3-8.5-6.3h-0.4
		c-2.1,2.4-6.1,6.3-12.7,6.3C237.3,76.3,230.3,72.5,230.3,59z M258,48.3c-0.3-1.4-1.2-3-3-3c-3.3,0-6.5,4.8-6.5,12.8
		c0,4.7,1.6,6.1,3.5,6.1c1.5,0,2.9-1.1,3.8-2.7L258,48.3z"/>
	<path class="st0" d="M306.2,33.1c15,0,19,7.9,19,12.6c0,2.5-0.7,4.6-1.2,5.8l-16.6,0.1c0.2-1,0.4-1.9,0.4-3.2
		c0-1.4-0.6-3.1-2.6-3.1c-3.5,0-6.2,5.9-6.2,13.6c0,3.2,1.3,5.2,3.3,5.2c2.2,0,4.1-2.4,4.1-6.3H323c0,9.9-3.1,18.4-21.2,18.4
		c-12.7,0-20-6.5-20-17C281.8,45.4,288.8,33.1,306.2,33.1z"/>
	<path class="st0" d="M369.3,63.7c0.5,0,1.3-0.2,1.9-0.3L369.2,75c-2.5,0.8-6,1.3-9,1.3c-6.3,0-7.9-4.1-8.5-6.5
		c-1-3.7-2.1-8.4-2.8-10.2h-2.5l-2.6,15.9h-16.9l10.1-60.9h16.9l-5.6,33.7l2.2-0.3c1.5-1.7,7.2-12.5,9-14h16.9l-0.3,1.9
		c-1.8,1.7-9.5,14.5-12.1,17.7c0.8,1.4,2.2,6.2,3.3,8.6C367.7,63.3,368.4,63.7,369.3,63.7z"/>
	<path class="st0" d="M378.8,58.5h17.8l-2.8,16.9H376L378.8,58.5z"/>
	<path class="st0" d="M425.6,52.3l-3.9,23.1h-17l4.5-26.6c0.2-1.6,0.3-3.6-1.8-3.6c-0.9,0-1.7,0.2-2.3,0.4l1.4-11.3
		c2.4-0.7,7.2-1.3,10.2-1.3c6.3,0,8.1,4,8.1,6.2c0,0.7-0.1,1.2-0.2,1.7h0.5c2-4.1,6-7.9,12.1-7.9c7.7,0,9.8,5.2,9.8,9.6
		c0,5.3-1.7,9.2-3.1,12.1L430.1,54c0.7-2.1,1.2-3.9,1.2-5.7c0-1.5-0.6-2.8-1.8-2.8C428,45.6,426.4,47.4,425.6,52.3z"/>
	<path class="st0" d="M472.7,68.4c-2.1,4.7-5.6,7.9-12.4,7.9c-6.7,0-11.4-3.6-11.4-12.4c0-1.6,0.2-3.5,0.6-5.3l4.1-24.5h16.9
		l-4.1,24.4c-0.2,1-0.3,2.3-0.3,3c0,1.9,0.5,2.7,2.1,2.7c2.1,0,3.8-1.9,5-9l3.4-21.1h17l-4.5,26.6c-0.2,1.6-0.3,3.6,1.8,3.6
		c0.9,0,1.8-0.2,2.3-0.4L491.7,75c-2.5,0.7-7.2,1.3-10.3,1.3c-6.3,0-8.4-4-8.4-6.5c0-0.3,0-0.8,0.1-1.4H472.7z"/>
</g>
</svg>
